<?xml version="1.0" encoding="UTF-8" standalone="no"?><svg xmlns="http://www.w3.org/2000/svg" xmlns:xlink="http://www.w3.org/1999/xlink" contentStyleType="text/css" height="1009px" preserveAspectRatio="none" style="width:2843px;height:1009px;background:#FFFFFF;" version="1.1" viewBox="0 0 2843 1009" width="2843px" zoomAndPan="magnify"><defs/><g><!--MD5=[23cbaadc18b1780d966e07254adaec4d]
cluster frontend--><g id="cluster_frontend"><path d="M8.5,148.88 L70.5,148.88 A3.75,3.75 0 0 1 73,151.38 L80,172.4894 L1281.5,172.4894 A2.5,2.5 0 0 1 1284,174.9894 L1284,999.88 A2.5,2.5 0 0 1 1281.5,1002.38 L8.5,1002.38 A2.5,2.5 0 0 1 6,999.88 L6,151.38 A2.5,2.5 0 0 1 8.5,148.88 " fill="none" style="stroke:#000000;stroke-width:1.5;"/><line style="stroke:#000000;stroke-width:1.5;" x1="6" x2="80" y1="172.4894" y2="172.4894"/><text fill="#000000" font-family="sans-serif" font-size="14" font-weight="bold" lengthAdjust="spacing" textLength="61" x="10" y="165.4132">frontend</text></g><!--MD5=[47c14c564e796a575e671c2b0469a7bb]
cluster backend--><g id="cluster_backend"><path d="M1318.5,81.88 L1379.5,81.88 A3.75,3.75 0 0 1 1382,84.38 L1389,105.4894 L2833.5,105.4894 A2.5,2.5 0 0 1 2836,107.9894 L2836,391.88 A2.5,2.5 0 0 1 2833.5,394.38 L1318.5,394.38 A2.5,2.5 0 0 1 1316,391.88 L1316,84.38 A2.5,2.5 0 0 1 1318.5,81.88 " fill="none" style="stroke:#000000;stroke-width:1.5;"/><line style="stroke:#000000;stroke-width:1.5;" x1="1316" x2="1389" y1="105.4894" y2="105.4894"/><text fill="#000000" font-family="sans-serif" font-size="14" font-weight="bold" lengthAdjust="spacing" textLength="60" x="1320" y="98.4132">backend</text></g><!--MD5=[db65ce44d5e360fb4ec835f941dc7573]
cluster database--><g id="cluster_database"><path d="M2449,143.88 C2449,133.88 2626.5,133.88 2626.5,133.88 C2626.5,133.88 2804,133.88 2804,143.88 L2804,352.38 C2804,362.38 2626.5,362.38 2626.5,362.38 C2626.5,362.38 2449,362.38 2449,352.38 L2449,143.88 " fill="none" style="stroke:#181818;stroke-width:1.0;"/><path d="M2449,143.88 C2449,153.88 2626.5,153.88 2626.5,153.88 C2626.5,153.88 2804,153.88 2804,143.88 " fill="none" style="stroke:#181818;stroke-width:1.0;"/><text fill="#000000" font-family="sans-serif" font-size="14" font-weight="bold" lengthAdjust="spacing" textLength="64" x="2594.5" y="170.4132">database</text></g><!--MD5=[cbbcdfd2ff286cf453505908e439d9c0]
cluster logic--><g id="cluster_logic"><rect fill="none" height="111" rx="2.5" ry="2.5" style="stroke:#181818;stroke-width:1.0;" width="1069" x="1356" y="143.38"/><path d="M1400,143.38 L1400,153.9894 L1390,163.9894 L1356,163.9894 " fill="none" style="stroke:#181818;stroke-width:1.0;"/><text fill="#000000" font-family="sans-serif" font-size="14" font-weight="bold" lengthAdjust="spacing" textLength="34" x="1359" y="158.9132">logic</text></g><!--MD5=[273c2e3d23874759784a855141f42e18]
entity gamemanager--><g id="elem_gamemanager"><rect fill="#F1F1F1" height="47.6094" rx="2.5" ry="2.5" style="stroke:#181818;stroke-width:0.5;" width="131" x="830.5" y="184.88"/><rect fill="#F1F1F1" height="10" style="stroke:#181818;stroke-width:0.5;" width="15" x="941.5" y="189.88"/><rect fill="#F1F1F1" height="2" style="stroke:#181818;stroke-width:0.5;" width="4" x="939.5" y="191.88"/><rect fill="#F1F1F1" height="2" style="stroke:#181818;stroke-width:0.5;" width="4" x="939.5" y="195.88"/><text fill="#000000" font-family="sans-serif" font-size="14" lengthAdjust="spacing" textLength="91" x="845.5" y="219.4132">gamemanager</text></g><g id="elem_GMN9"><path d="M996.5,187.38 L996.5,204.88 L961.91,208.88 L996.5,212.88 L996.5,230.0831 A0,0 0 0 0 996.5,230.0831 L1267.5,230.0831 A0,0 0 0 0 1267.5,230.0831 L1267.5,197.38 L1257.5,187.38 L996.5,187.38 A0,0 0 0 0 996.5,187.38 " fill="#FEFFDD" style="stroke:#181818;stroke-width:0.5;"/><path d="M1257.5,187.38 L1257.5,197.38 L1267.5,197.38 L1257.5,187.38 " fill="#FEFFDD" style="stroke:#181818;stroke-width:0.5;"/><text fill="#000000" font-family="sans-serif" font-size="13" lengthAdjust="spacing" textLength="240" x="1002.5" y="205.8751">updates the backend of your game status</text><text fill="#000000" font-family="sans-serif" font-size="13" lengthAdjust="spacing" textLength="250" x="1002.5" y="222.2267">and gives you information from the backend</text></g><!--MD5=[cd589f63ad2c7322e07fcb3acab51907]
entity followerCounter--><g id="elem_followerCounter"><rect fill="#F1F1F1" height="47.6094" rx="2.5" ry="2.5" style="stroke:#181818;stroke-width:0.5;" width="139" x="826.5" y="298.38"/><rect fill="#F1F1F1" height="10" style="stroke:#181818;stroke-width:0.5;" width="15" x="945.5" y="303.38"/><rect fill="#F1F1F1" height="2" style="stroke:#181818;stroke-width:0.5;" width="4" x="943.5" y="305.38"/><rect fill="#F1F1F1" height="2" style="stroke:#181818;stroke-width:0.5;" width="4" x="943.5" y="309.38"/><text fill="#000000" font-family="sans-serif" font-size="14" lengthAdjust="spacing" textLength="99" x="841.5" y="332.9132">followerCounter</text></g><g id="elem_GMN14"><path d="M483,300.88 L483,343.5831 A0,0 0 0 0 483,343.5831 L791,343.5831 A0,0 0 0 0 791,343.5831 L791,326.38 L826.3,322.38 L791,318.38 L791,310.88 L781,300.88 L483,300.88 A0,0 0 0 0 483,300.88 " fill="#FEFFDD" style="stroke:#181818;stroke-width:0.5;"/><path d="M781,300.88 L781,310.88 L791,310.88 L781,300.88 " fill="#FEFFDD" style="stroke:#181818;stroke-width:0.5;"/><text fill="#000000" font-family="sans-serif" font-size="13" lengthAdjust="spacing" textLength="283" x="489" y="319.3751">simple counter that displays your current amount</text><text fill="#000000" font-family="sans-serif" font-size="13" lengthAdjust="spacing" textLength="64" x="489" y="335.7267">of followers</text></g><!--MD5=[e3db5a0d3ab78b330d652bf59e75a325]
entity clickbutton--><g id="elem_clickbutton"><rect fill="#F1F1F1" height="47.6094" rx="2.5" ry="2.5" style="stroke:#181818;stroke-width:0.5;" width="107" x="843.5" y="440.38"/><rect fill="#F1F1F1" height="10" style="stroke:#181818;stroke-width:0.5;" width="15" x="930.5" y="445.38"/><rect fill="#F1F1F1" height="2" style="stroke:#181818;stroke-width:0.5;" width="4" x="928.5" y="447.38"/><rect fill="#F1F1F1" height="2" style="stroke:#181818;stroke-width:0.5;" width="4" x="928.5" y="451.38"/><text fill="#000000" font-family="sans-serif" font-size="14" lengthAdjust="spacing" textLength="67" x="858.5" y="474.9132">clickbutton</text></g><g id="elem_GMN19"><path d="M986,418.38 L986,460.38 L950.91,464.38 L986,468.38 L986,510.1378 A0,0 0 0 0 986,510.1378 L1268,510.1378 A0,0 0 0 0 1268,510.1378 L1268,428.38 L1258,418.38 L986,418.38 A0,0 0 0 0 986,418.38 " fill="#FEFFDD" style="stroke:#181818;stroke-width:0.5;"/><path d="M1258,418.38 L1258,428.38 L1268,428.38 L1258,418.38 " fill="#FEFFDD" style="stroke:#181818;stroke-width:0.5;"/><text fill="#000000" font-family="sans-serif" font-size="13" lengthAdjust="spacing" textLength="220" x="992" y="436.8751">the button the game is centerd around</text><text fill="#000000" font-family="sans-serif" font-size="13" lengthAdjust="spacing" textLength="231" x="992" y="453.2267">click this to create content and possibly</text><text fill="#000000" font-family="sans-serif" font-size="13" lengthAdjust="spacing" textLength="246" x="992" y="469.5782">get more followers to progress in the game</text><text fill="#000000" font-family="sans-serif" font-size="13" lengthAdjust="spacing" textLength="257" x="992" y="485.9298">there is a delay between every click that can</text><text fill="#000000" font-family="sans-serif" font-size="13" lengthAdjust="spacing" textLength="162" x="992" y="502.2814">be decreased with upgrades</text></g><!--MD5=[1aa5462bfc0e82773216a1c615ee98eb]
entity followersPerClick--><g id="elem_followersPerClick"><rect fill="#F1F1F1" height="47.6094" rx="2.5" ry="2.5" style="stroke:#181818;stroke-width:0.5;" width="147" x="780.5" y="570.38"/><rect fill="#F1F1F1" height="10" style="stroke:#181818;stroke-width:0.5;" width="15" x="907.5" y="575.38"/><rect fill="#F1F1F1" height="2" style="stroke:#181818;stroke-width:0.5;" width="4" x="905.5" y="577.38"/><rect fill="#F1F1F1" height="2" style="stroke:#181818;stroke-width:0.5;" width="4" x="905.5" y="581.38"/><text fill="#000000" font-family="sans-serif" font-size="14" lengthAdjust="spacing" textLength="107" x="795.5" y="604.9132">followersPerClick</text></g><g id="elem_GMN24"><path d="M962.5,572.88 L962.5,590.38 L927.71,594.38 L962.5,598.38 L962.5,615.5831 A0,0 0 0 0 962.5,615.5831 L1255.5,615.5831 A0,0 0 0 0 1255.5,615.5831 L1255.5,582.88 L1245.5,572.88 L962.5,572.88 A0,0 0 0 0 962.5,572.88 " fill="#FEFFDD" style="stroke:#181818;stroke-width:0.5;"/><path d="M1245.5,572.88 L1245.5,582.88 L1255.5,582.88 L1245.5,572.88 " fill="#FEFFDD" style="stroke:#181818;stroke-width:0.5;"/><text fill="#000000" font-family="sans-serif" font-size="13" lengthAdjust="spacing" textLength="272" x="968.5" y="591.3751">displays how many followers that is possible to</text><text fill="#000000" font-family="sans-serif" font-size="13" lengthAdjust="spacing" textLength="189" x="968.5" y="607.7267">get from pressing the clickbutton</text></g><!--MD5=[c107fbd9c8a13280a0b2d7ffc388223a]
entity passiveFollowerIncrease--><g id="elem_passiveFollowerIncrease"><rect fill="#F1F1F1" height="47.6094" rx="2.5" ry="2.5" style="stroke:#181818;stroke-width:0.5;" width="195" x="613.5" y="440.38"/><rect fill="#F1F1F1" height="10" style="stroke:#181818;stroke-width:0.5;" width="15" x="788.5" y="445.38"/><rect fill="#F1F1F1" height="2" style="stroke:#181818;stroke-width:0.5;" width="4" x="786.5" y="447.38"/><rect fill="#F1F1F1" height="2" style="stroke:#181818;stroke-width:0.5;" width="4" x="786.5" y="451.38"/><text fill="#000000" font-family="sans-serif" font-size="14" lengthAdjust="spacing" textLength="155" x="628.5" y="474.9132">passiveFollowerIncrease</text></g><g id="elem_GMN29"><path d="M295.5,442.88 L295.5,485.5831 A0,0 0 0 0 295.5,485.5831 L578.5,485.5831 A0,0 0 0 0 578.5,485.5831 L578.5,468.38 L613.47,464.38 L578.5,460.38 L578.5,452.88 L568.5,442.88 L295.5,442.88 A0,0 0 0 0 295.5,442.88 " fill="#FEFFDD" style="stroke:#181818;stroke-width:0.5;"/><path d="M568.5,442.88 L568.5,452.88 L578.5,452.88 L568.5,442.88 " fill="#FEFFDD" style="stroke:#181818;stroke-width:0.5;"/><text fill="#000000" font-family="sans-serif" font-size="13" lengthAdjust="spacing" textLength="262" x="301.5" y="461.3751">this displays the range of how many followers</text><text fill="#000000" font-family="sans-serif" font-size="13" lengthAdjust="spacing" textLength="220" x="301.5" y="477.7267">you can get passively (every secound)</text></g><!--MD5=[3ad87c5d0fc00de34b35a8a753824fe8]
entity upgrades--><g id="elem_upgrades"><rect fill="#F1F1F1" height="47.6094" rx="2.5" ry="2.5" style="stroke:#181818;stroke-width:0.5;" width="100" x="727" y="678.38"/><rect fill="#F1F1F1" height="10" style="stroke:#181818;stroke-width:0.5;" width="15" x="807" y="683.38"/><rect fill="#F1F1F1" height="2" style="stroke:#181818;stroke-width:0.5;" width="4" x="805" y="685.38"/><rect fill="#F1F1F1" height="2" style="stroke:#181818;stroke-width:0.5;" width="4" x="805" y="689.38"/><text fill="#000000" font-family="sans-serif" font-size="14" lengthAdjust="spacing" textLength="60" x="742" y="712.9132">upgrades</text></g><g id="elem_GMN35"><path d="M862,689.38 L862,698.38 L827.11,702.38 L862,706.38 L862,715.7316 A0,0 0 0 0 862,715.7316 L1200,715.7316 A0,0 0 0 0 1200,715.7316 L1200,699.38 L1190,689.38 L862,689.38 A0,0 0 0 0 862,689.38 " fill="#FEFFDD" style="stroke:#181818;stroke-width:0.5;"/><path d="M1190,689.38 L1190,699.38 L1200,699.38 L1190,689.38 " fill="#FEFFDD" style="stroke:#181818;stroke-width:0.5;"/><text fill="#000000" font-family="sans-serif" font-size="13" lengthAdjust="spacing" textLength="317" x="868" y="707.8751">a list of different upgrades that help you progress faster</text></g><!--MD5=[72c109555bdf2de0a0a4ab9fd7228dcb]
entity clickDelay--><g id="elem_clickDelay"><rect fill="#F1F1F1" height="47.6094" rx="2.5" ry="2.5" style="stroke:#181818;stroke-width:0.5;" width="103" x="168.5" y="786.38"/><rect fill="#F1F1F1" height="10" style="stroke:#181818;stroke-width:0.5;" width="15" x="251.5" y="791.38"/><rect fill="#F1F1F1" height="2" style="stroke:#181818;stroke-width:0.5;" width="4" x="249.5" y="793.38"/><rect fill="#F1F1F1" height="2" style="stroke:#181818;stroke-width:0.5;" width="4" x="249.5" y="797.38"/><text fill="#000000" font-family="sans-serif" font-size="14" lengthAdjust="spacing" textLength="63" x="183.5" y="820.9132">clickDelay</text></g><g id="elem_GMN40"><path d="M22,918.88 L22,961.5831 A0,0 0 0 0 22,961.5831 L298,961.5831 A0,0 0 0 0 298,961.5831 L298,928.88 L288,918.88 L173.79,918.88 L209.13,834.56 L165.79,918.88 L22,918.88 A0,0 0 0 0 22,918.88 " fill="#FEFFDD" style="stroke:#181818;stroke-width:0.5;"/><path d="M288,918.88 L288,928.88 L298,928.88 L288,918.88 " fill="#FEFFDD" style="stroke:#181818;stroke-width:0.5;"/><text fill="#000000" font-family="sans-serif" font-size="13" lengthAdjust="spacing" textLength="251" x="28" y="937.3751">invest in this upgrade to decrease the delay</text><text fill="#000000" font-family="sans-serif" font-size="13" lengthAdjust="spacing" textLength="111" x="28" y="953.7267">between each click</text></g><!--MD5=[cce616a945d2377a29ada22de75cb87a]
entity followerGain--><g id="elem_followerGain"><rect fill="#F1F1F1" height="47.6094" rx="2.5" ry="2.5" style="stroke:#181818;stroke-width:0.5;" width="118" x="487" y="786.38"/><rect fill="#F1F1F1" height="10" style="stroke:#181818;stroke-width:0.5;" width="15" x="585" y="791.38"/><rect fill="#F1F1F1" height="2" style="stroke:#181818;stroke-width:0.5;" width="4" x="583" y="793.38"/><rect fill="#F1F1F1" height="2" style="stroke:#181818;stroke-width:0.5;" width="4" x="583" y="797.38"/><text fill="#000000" font-family="sans-serif" font-size="14" lengthAdjust="spacing" textLength="78" x="502" y="820.9132">followerGain</text></g><g id="elem_GMN45"><path d="M333.5,910.88 L333.5,969.9347 A0,0 0 0 0 333.5,969.9347 L632.5,969.9347 A0,0 0 0 0 632.5,969.9347 L632.5,920.88 L622.5,910.88 L501.19,910.88 L534.59,834.56 L493.19,910.88 L333.5,910.88 A0,0 0 0 0 333.5,910.88 " fill="#FEFFDD" style="stroke:#181818;stroke-width:0.5;"/><path d="M622.5,910.88 L622.5,920.88 L632.5,920.88 L622.5,910.88 " fill="#FEFFDD" style="stroke:#181818;stroke-width:0.5;"/><text fill="#000000" font-family="sans-serif" font-size="13" lengthAdjust="spacing" textLength="274" x="339.5" y="929.3751">increases the quality of your new content to get</text><text fill="#000000" font-family="sans-serif" font-size="13" lengthAdjust="spacing" textLength="274" x="339.5" y="945.7267">more people to watch and follow increases both</text><text fill="#000000" font-family="sans-serif" font-size="13" lengthAdjust="spacing" textLength="268" x="339.5" y="962.0782">passiveFollowerIncrease and followersPerClick</text></g><!--MD5=[34073f1c5e898063b8474e19feee4743]
entity genreDiversity--><g id="elem_genreDiversity"><rect fill="#F1F1F1" height="47.6094" rx="2.5" ry="2.5" style="stroke:#181818;stroke-width:0.5;" width="131" x="730.5" y="786.38"/><rect fill="#F1F1F1" height="10" style="stroke:#181818;stroke-width:0.5;" width="15" x="841.5" y="791.38"/><rect fill="#F1F1F1" height="2" style="stroke:#181818;stroke-width:0.5;" width="4" x="839.5" y="793.38"/><rect fill="#F1F1F1" height="2" style="stroke:#181818;stroke-width:0.5;" width="4" x="839.5" y="797.38"/><text fill="#000000" font-family="sans-serif" font-size="14" lengthAdjust="spacing" textLength="91" x="745.5" y="820.9132">genreDiversity</text></g><g id="elem_GMN50"><path d="M667.5,894.38 L667.5,986.1378 A0,0 0 0 0 667.5,986.1378 L984.5,986.1378 A0,0 0 0 0 984.5,986.1378 L984.5,904.38 L974.5,894.38 L819.45,894.38 L801.43,834.56 L811.45,894.38 L667.5,894.38 A0,0 0 0 0 667.5,894.38 " fill="#FEFFDD" style="stroke:#181818;stroke-width:0.5;"/><path d="M974.5,894.38 L974.5,904.38 L984.5,904.38 L974.5,894.38 " fill="#FEFFDD" style="stroke:#181818;stroke-width:0.5;"/><text fill="#000000" font-family="sans-serif" font-size="13" lengthAdjust="spacing" textLength="278" x="673.5" y="912.8751">You can choose to invest in different genres that</text><text fill="#000000" font-family="sans-serif" font-size="13" lengthAdjust="spacing" textLength="279" x="673.5" y="929.2267">will change how you gain followers depending on</text><text fill="#000000" font-family="sans-serif" font-size="13" lengthAdjust="spacing" textLength="296" x="673.5" y="945.5782">how different communities online consume content.</text><text fill="#000000" font-family="sans-serif" font-size="13" lengthAdjust="spacing" textLength="271" x="673.5" y="961.9298">This will also change the ages reached by your</text><text fill="#000000" font-family="sans-serif" font-size="13" lengthAdjust="spacing" textLength="47" x="673.5" y="978.2814">content.</text></g><!--MD5=[cd69c8f8b471a3f805434e78a000fb52]
entity agediversity--><g id="elem_agediversity"><rect fill="#F1F1F1" height="47.6094" rx="2.5" ry="2.5" style="stroke:#181818;stroke-width:0.5;" width="116" x="976" y="786.38"/><rect fill="#F1F1F1" height="10" style="stroke:#181818;stroke-width:0.5;" width="15" x="1072" y="791.38"/><rect fill="#F1F1F1" height="2" style="stroke:#181818;stroke-width:0.5;" width="4" x="1070" y="793.38"/><rect fill="#F1F1F1" height="2" style="stroke:#181818;stroke-width:0.5;" width="4" x="1070" y="797.38"/><text fill="#000000" font-family="sans-serif" font-size="14" lengthAdjust="spacing" textLength="76" x="991" y="820.9132">agediversity</text></g><g id="elem_GMN55"><path d="M1020,902.88 L1020,978.2863 A0,0 0 0 0 1020,978.2863 L1268,978.2863 A0,0 0 0 0 1268,978.2863 L1268,912.88 L1258,902.88 L1116.58,902.88 L1053.92,834.56 L1108.58,902.88 L1020,902.88 A0,0 0 0 0 1020,902.88 " fill="#FEFFDD" style="stroke:#181818;stroke-width:0.5;"/><path d="M1258,902.88 L1258,912.88 L1268,912.88 L1258,902.88 " fill="#FEFFDD" style="stroke:#181818;stroke-width:0.5;"/><text fill="#000000" font-family="sans-serif" font-size="13" lengthAdjust="spacing" textLength="209" x="1026" y="921.3751">Invest is to find what different genres</text><text fill="#000000" font-family="sans-serif" font-size="13" lengthAdjust="spacing" textLength="223" x="1026" y="937.7267">are most popular in what ages to know</text><text fill="#000000" font-family="sans-serif" font-size="13" lengthAdjust="spacing" textLength="220" x="1026" y="954.0782">what genres to invest in to reach more</text><text fill="#000000" font-family="sans-serif" font-size="13" lengthAdjust="spacing" textLength="154" x="1026" y="970.4298">diverse aged people faster.</text></g><!--MD5=[6ab2dff49c13bd279f693707ffde1c79]
entity username--><g id="elem_username"><rect fill="#F1F1F1" height="47.6094" rx="2.5" ry="2.5" style="stroke:#181818;stroke-width:0.5;" width="103" x="2465.5" y="184.88"/><rect fill="#F1F1F1" height="10" style="stroke:#181818;stroke-width:0.5;" width="15" x="2548.5" y="189.88"/><rect fill="#F1F1F1" height="2" style="stroke:#181818;stroke-width:0.5;" width="4" x="2546.5" y="191.88"/><rect fill="#F1F1F1" height="2" style="stroke:#181818;stroke-width:0.5;" width="4" x="2546.5" y="195.88"/><text fill="#000000" font-family="sans-serif" font-size="14" lengthAdjust="spacing" textLength="63" x="2480.5" y="219.4132">username</text></g><!--MD5=[54c847f66dec8fca484e640d44014b14]
entity fastestCompletionTime--><g id="elem_fastestCompletionTime"><rect fill="#F1F1F1" height="47.6094" rx="2.5" ry="2.5" style="stroke:#181818;stroke-width:0.5;" width="184" x="2604" y="184.88"/><rect fill="#F1F1F1" height="10" style="stroke:#181818;stroke-width:0.5;" width="15" x="2768" y="189.88"/><rect fill="#F1F1F1" height="2" style="stroke:#181818;stroke-width:0.5;" width="4" x="2766" y="191.88"/><rect fill="#F1F1F1" height="2" style="stroke:#181818;stroke-width:0.5;" width="4" x="2766" y="195.88"/><text fill="#000000" font-family="sans-serif" font-size="14" lengthAdjust="spacing" textLength="144" x="2619" y="219.4132">fastestCompletionTime</text></g><!--MD5=[23f8742e8eae4039d61ac45986b7f39e]
entity orderOfchoises--><g id="elem_orderOfchoises"><rect fill="#F1F1F1" height="47.6094" rx="2.5" ry="2.5" style="stroke:#181818;stroke-width:0.5;" width="137" x="2465.5" y="298.38"/><rect fill="#F1F1F1" height="10" style="stroke:#181818;stroke-width:0.5;" width="15" x="2582.5" y="303.38"/><rect fill="#F1F1F1" height="2" style="stroke:#181818;stroke-width:0.5;" width="4" x="2580.5" y="305.38"/><rect fill="#F1F1F1" height="2" style="stroke:#181818;stroke-width:0.5;" width="4" x="2580.5" y="309.38"/><text fill="#000000" font-family="sans-serif" font-size="14" lengthAdjust="spacing" textLength="97" x="2480.5" y="332.9132">orderOfchoises</text></g><!--MD5=[550f1d4006882d857d21e44e52884bff]
entity strategyRecorder--><g id="elem_strategyRecorder"><rect fill="#F1F1F1" height="47.6094" rx="2.5" ry="2.5" style="stroke:#181818;stroke-width:0.5;" width="150" x="2259" y="184.88"/><rect fill="#F1F1F1" height="10" style="stroke:#181818;stroke-width:0.5;" width="15" x="2389" y="189.88"/><rect fill="#F1F1F1" height="2" style="stroke:#181818;stroke-width:0.5;" width="4" x="2387" y="191.88"/><rect fill="#F1F1F1" height="2" style="stroke:#181818;stroke-width:0.5;" width="4" x="2387" y="195.88"/><text fill="#000000" font-family="sans-serif" font-size="14" lengthAdjust="spacing" textLength="110" x="2274" y="219.4132">strategyRecorder</text></g><g id="elem_GMN65"><path d="M1818.5,195.88 L1818.5,222.2316 A0,0 0 0 0 1818.5,222.2316 L2223.5,222.2316 A0,0 0 0 0 2223.5,222.2316 L2223.5,213.88 L2258.57,208.88 L2223.5,205.88 L2223.5,205.88 L2213.5,195.88 L1818.5,195.88 A0,0 0 0 0 1818.5,195.88 " fill="#FEFFDD" style="stroke:#181818;stroke-width:0.5;"/><path d="M2213.5,195.88 L2213.5,205.88 L2223.5,205.88 L2213.5,195.88 " fill="#FEFFDD" style="stroke:#181818;stroke-width:0.5;"/><text fill="#000000" font-family="sans-serif" font-size="13" lengthAdjust="spacing" textLength="384" x="1824.5" y="214.3751">takes each choice you make in game and saves it to the database</text></g><!--MD5=[8731e04ebe0bdc818054b168c49c6dbe]
entity algorithmFavor--><g id="elem_algorithmFavor"><rect fill="#F1F1F1" height="47.6094" rx="2.5" ry="2.5" style="stroke:#181818;stroke-width:0.5;" width="135" x="1372.5" y="184.88"/><rect fill="#F1F1F1" height="10" style="stroke:#181818;stroke-width:0.5;" width="15" x="1487.5" y="189.88"/><rect fill="#F1F1F1" height="2" style="stroke:#181818;stroke-width:0.5;" width="4" x="1485.5" y="191.88"/><rect fill="#F1F1F1" height="2" style="stroke:#181818;stroke-width:0.5;" width="4" x="1485.5" y="195.88"/><text fill="#000000" font-family="sans-serif" font-size="14" lengthAdjust="spacing" textLength="95" x="1387.5" y="219.4132">algorithmFavor</text></g><g id="elem_GMN69"><path d="M1542.5,179.38 L1542.5,204.88 L1507.51,208.88 L1542.5,212.88 L1542.5,238.4347 A0,0 0 0 0 1542.5,238.4347 L1783.5,238.4347 A0,0 0 0 0 1783.5,238.4347 L1783.5,189.38 L1773.5,179.38 L1542.5,179.38 A0,0 0 0 0 1542.5,179.38 " fill="#FEFFDD" style="stroke:#181818;stroke-width:0.5;"/><path d="M1773.5,179.38 L1773.5,189.38 L1783.5,189.38 L1773.5,179.38 " fill="#FEFFDD" style="stroke:#181818;stroke-width:0.5;"/><text fill="#000000" font-family="sans-serif" font-size="13" lengthAdjust="spacing" textLength="220" x="1548.5" y="197.8751">takes your current genres and ages to</text><text fill="#000000" font-family="sans-serif" font-size="13" lengthAdjust="spacing" textLength="198" x="1548.5" y="214.2267">calculate how favorable it is for the</text><text fill="#000000" font-family="sans-serif" font-size="13" lengthAdjust="spacing" textLength="209" x="1548.5" y="230.5782">platform to promote and recommend</text></g><!--MD5=[aa85114e11b185a3f23592fd62d14752]
reverse link gamemanager to followerCounter--><g id="link_gamemanager_followerCounter"><path d="M896,238.08 C896,256.71 896,280.82 896,298.31 " fill="none" id="gamemanager-backto-followerCounter" style="stroke:#181818;stroke-width:1.0;"/><polygon fill="#181818" points="896,232.98,892,241.98,896,237.98,900,241.98,896,232.98" style="stroke:#181818;stroke-width:1.0;"/></g><!--MD5=[69d01e279641a8aac7d44561057fd95c]
reverse link followerCounter to clickbutton--><g id="link_followerCounter_clickbutton"><path d="M896.2,351.54 C896.39,377.61 896.66,415.9 896.83,440.23 " fill="none" id="followerCounter-backto-clickbutton" style="stroke:#181818;stroke-width:1.0;"/><polygon fill="#181818" points="896.17,346.5,892.2215,355.5227,896.1986,351.4999,900.2214,355.477,896.17,346.5" style="stroke:#181818;stroke-width:1.0;"/></g><!--MD5=[260a14a66691aaa76b2d7c8ae8d0581c]
reverse link clickbutton to followersPerClick--><g id="link_clickbutton_followersPerClick"><path d="M887.61,493.34 C879.86,516.42 868.99,548.77 861.73,570.37 " fill="none" id="clickbutton-backto-followersPerClick" style="stroke:#181818;stroke-width:1.0;"/><polygon fill="#181818" points="889.21,488.56,882.543,495.8092,887.6117,493.2977,890.1233,498.3664,889.21,488.56" style="stroke:#181818;stroke-width:1.0;"/></g><!--MD5=[c968b51fe83d81e364e16da945a836ff]
reverse link followerCounter to passiveFollowerIncrease--><g id="link_followerCounter_passiveFollowerIncrease"><path d="M872.5,350.73 C855.93,369 832.56,392.81 809,410.38 C794.03,421.54 776.43,431.81 760.29,440.29 " fill="none" id="followerCounter-backto-passiveFollowerIncrease" style="stroke:#181818;stroke-width:1.0;"/><polygon fill="#181818" points="876.15,346.68,867.1561,350.6938,872.8052,350.3965,873.1025,356.0455,876.15,346.68" style="stroke:#181818;stroke-width:1.0;"/></g><!--MD5=[105e489e37ce99c48f5fbb11c023b498]
link followersPerClick to upgrades--><g id="link_followersPerClick_upgrades"><path d="M834.2,622.63 C822.81,638.32 808.53,657.98 797.09,673.73 " fill="none" id="followersPerClick-upgrades" style="stroke:#181818;stroke-width:1.0;"/><polygon fill="#181818" points="793.94,678.06,802.4623,673.1233,796.8758,674.0126,795.9865,668.4261,793.94,678.06" style="stroke:#181818;stroke-width:1.0;"/><polygon fill="#181818" points="837.29,618.38,828.7709,623.3221,834.3568,622.4292,835.2496,628.0152,837.29,618.38" style="stroke:#181818;stroke-width:1.0;"/></g><!--MD5=[23ed3aafa2bd90dd3ff6d4387ffaaa47]
link passiveFollowerIncrease to upgrades--><g id="link_passiveFollowerIncrease_upgrades"><path d="M718.83,493.39 C731.51,538.74 756.4,627.7 769.11,673.17 " fill="none" id="passiveFollowerIncrease-upgrades" style="stroke:#181818;stroke-width:1.0;"/><polygon fill="#181818" points="770.53,678.23,771.9648,668.4862,769.1866,673.4138,764.259,670.6356,770.53,678.23" style="stroke:#181818;stroke-width:1.0;"/><polygon fill="#181818" points="717.45,488.44,716.0152,498.1838,718.7934,493.2562,723.721,496.0344,717.45,488.44" style="stroke:#181818;stroke-width:1.0;"/></g><!--MD5=[2d3b35c777e1dd638cfd7e0c934dc05c]
reverse link upgrades to clickDelay--><g id="link_upgrades_clickDelay"><path d="M721.54,713.93 C613.51,734.49 376.3,779.64 271.51,799.58 " fill="none" id="upgrades-backto-clickDelay" style="stroke:#181818;stroke-width:1.0;"/><polygon fill="#181818" points="726.59,712.97,717.0038,710.7106,721.6769,713.8983,718.4892,718.5715,726.59,712.97" style="stroke:#181818;stroke-width:1.0;"/></g><!--MD5=[d4a6981585c1b9ce7356f96717bf12a0]
reverse link upgrades to followerGain--><g id="link_upgrades_followerGain"><path d="M722.29,728.49 C684.13,745.99 633.6,769.18 596.42,786.24 " fill="none" id="upgrades-backto-followerGain" style="stroke:#181818;stroke-width:1.0;"/><polygon fill="#181818" points="726.88,726.38,717.0319,726.5,722.336,728.4662,720.3698,733.7704,726.88,726.38" style="stroke:#181818;stroke-width:1.0;"/></g><!--MD5=[1d824f08b4fc7b857442f9e404233582]
reverse link upgrades to genreDiversity--><g id="link_upgrades_genreDiversity"><path d="M782.04,731.51 C785.09,748.53 788.94,769.98 791.82,786.06 " fill="none" id="upgrades-backto-genreDiversity" style="stroke:#181818;stroke-width:1.0;"/><polygon fill="#181818" points="781.12,726.38,778.775,735.9456,782.0044,731.3012,786.6488,734.5306,781.12,726.38" style="stroke:#181818;stroke-width:1.0;"/></g><!--MD5=[4d05762f6a811821e23525ed98f97484]
reverse link upgrades to agediversity--><g id="link_upgrades_agediversity"><path d="M831.81,725.99 C874.93,743.77 934.78,768.46 978.16,786.35 " fill="none" id="upgrades-backto-agediversity" style="stroke:#181818;stroke-width:1.0;"/><polygon fill="#181818" points="827.16,724.07,833.9591,731.1955,831.7834,725.9737,837.0051,723.798,827.16,724.07" style="stroke:#181818;stroke-width:1.0;"/></g><!--MD5=[5279f684240402038bd0eb706340c0ac]
link gamemanager to backend--><g id="link_gamemanager_backend"><path d="M901.78,184.69 C912.66,145.22 940.33,68.14 996.5,35.88 C1048.53,6 1214.47,6 1266.5,35.88 C1283.515,45.6525 1295.6612,60.8388 1304.2989,78.2433 C1308.6177,86.9455 1312.0594,96.2024 1314.794,105.6144 C1315.1358,106.7909 1315.4666,107.9698 1315.7866,109.1503 " fill="none" id="gamemanager-to-backend" style="stroke:#181818;stroke-width:1.0;"/><polygon fill="#181818" points="1315.7866,109.1503,1317.2923,99.4173,1314.4783,104.3245,1309.5711,101.5105,1315.7866,109.1503" style="stroke:#181818;stroke-width:1.0;"/></g><!--MD5=[0820110dfd3d8c17206698d9a0b56dc3]
@startuml
package "frontend" {
note right of [gamemanager]{
updates the backend of your game status 
and gives you information from the backend
}

[gamemanager] <- - [followerCounter]

note left of [followerCounter]{
simple counter that displays your current amount 
of followers 
}

[followerCounter] <- - [clickbutton]

note right of [clickbutton]{
    the button the game is centerd around 
    click this to create content and possibly 
    get more followers to progress in the game
    there is a delay between every click that can 
    be decreased with upgrades
}

[clickbutton] <- - [followersPerClick]

note right of [followersPerClick]{
    displays how many followers that is possible to
    get from pressing the clickbutton
}

[followerCounter] <- - [passiveFollowerIncrease]

note left of passiveFollowerIncrease{
    this displays the range of how many followers
    you can get passively (every secound)
}

[followersPerClick] <- -> [upgrades]
[passiveFollowerIncrease] <- -> [upgrades]
note right of [upgrades]{
    a list of different upgrades that help you progress faster
}
[upgrades] <- - [clickDelay]
note bottom of [clickDelay]{
invest in this upgrade to decrease the delay 
between each click
}
[upgrades] <- - [followerGain]
note bottom of [followerGain]{
increases the quality of your new content to get 
more people to watch and follow increases both 
passiveFollowerIncrease and followersPerClick
}
[upgrades] <- - [genreDiversity]
note bottom of [genreDiversity] {
You can choose to invest in different genres that 
will change how you gain followers depending on
how different communities online consume content.
This will also change the ages reached by your 
content.
}
upgrades <- - [agediversity]
note bottom of [agediversity]{
Invest is to find what different genres
are most popular in what ages to know 
what genres to invest in to reach more 
diverse aged people faster.
}

}
package "backend"{
database "database"{
    [username]
    [fastestCompletionTime]
    [orderOfchoises]
}
frame "logic"{
 note left of [strategyRecorder]{
    takes each choice you make in game and saves it to the database
 }
 note right of [algorithmFavor]{
    takes your current genres and ages to
    calculate how favorable it is for the 
    platform to promote and recommend
 }
}
[gamemanager] -> backend
}
@enduml

PlantUML version 1.2022.7(Mon Aug 22 19:01:30 CEST 2022)
(GPL source distribution)
Java Runtime: Java(TM) SE Runtime Environment
JVM: Java HotSpot(TM) 64-Bit Server VM
Default Encoding: Cp1252
Language: en
Country: US
--></g></svg>